<?xml version="1.0" encoding="utf-8"?>
<!-- Generator: Adobe Illustrator 22.0.1, SVG Export Plug-In . SVG Version: 6.00 Build 0)  -->
<!DOCTYPE svg PUBLIC "-//W3C//DTD SVG 1.1//EN" "http://www.w3.org/Graphics/SVG/1.1/DTD/svg11.dtd">
<svg version="1.1" id="Layer_1" xmlns="http://www.w3.org/2000/svg" xmlns:xlink="http://www.w3.org/1999/xlink" x="0px" y="0px"
	 viewBox="0 0 460 200" style="enable-background:new 0 0 460 200;" xml:space="preserve">
<style type="text/css">
	.st0{fill:#26276D;}
	.st1{fill:#04A1CE;}
</style>
<path class="st0" d="M13.7,103.3V103c0-24.1,18.7-43.5,44.1-43.5c27.2,0,42.9,19.7,42.9,44.2c0,1.6,0,2.6-0.2,4h-73
	c2,18.1,16,28.3,32.4,28.3c12.6,0,21.5-4.7,29-11.8l8.5,7c-9.3,9.4-20.5,15.7-37.9,15.7C34.4,146.8,13.7,129.2,13.7,103.3z
	 M86.9,98.5C85.5,83.3,75.9,70,57.5,70c-16,0-28.1,12.1-29.9,28.5H86.9z"/>
<path class="st0" d="M112,61.9h13.7v21.8c6.8-13.9,20.1-23.9,37.6-23.3v13.4h-1.1c-20.1,0-36.5,13.1-36.5,38.3v33.3H112V61.9z"/>
<path class="st0" d="M172.7,60.9h14.6l24.2,67.5l24.7-67.5h11.4l24.9,67.5l24.2-67.5H311l-32.4,84.6h-11.9l-24.7-66l-24.9,66h-12.1
	L172.7,60.9z"/>
<path class="st1" d="M320.8,29.9h15.7v13.8h-15.7V29.9z M321.7,60.9h13.7v84.6h-13.7V60.9z"/>
<path class="st0" d="M353.7,60.9h13.7v15.5c6.1-9.1,15.7-16.3,31.5-16.3c22.2,0,35.2,13.6,35.2,33.5v51.9h-13.7V96.7
	c0-15.5-9.3-25.2-25.5-25.2c-15.8,0-27.6,10.5-27.6,26.2v47.9h-13.7V60.9z"/>
<path class="st1" d="M342.2,35.9l89.9,12.7c2.2,0.3,4.1-1.5,4.1-3.7V26.9c0-2.2-1.9-3.9-4.1-3.7L342.2,35.9L342.2,35.9z"/>
<g>
	<path class="st0" d="M434.9,66.3L434.9,66.3c0-3.8,3.1-7,7-7c3.9,0,7,3.2,7,7v0c0,3.8-3.1,7-7,7C437.9,73.3,434.9,70.1,434.9,66.3z
		 M448,66.3L448,66.3c0-3.4-2.6-6.2-6.2-6.2c-3.5,0-6.2,2.8-6.2,6.2v0c0,3.4,2.6,6.2,6.2,6.2C445.3,72.5,448,69.7,448,66.3z
		 M438.9,62.5h3.4c1.7,0,2.9,0.8,2.9,2.4c0,1.2-0.6,1.9-1.6,2.2l1.8,2.6h-2.1l-1.6-2.3h-1.1v2.3h-1.8V62.5z M442.2,66.1
		c0.8,0,1.2-0.4,1.2-1c0-0.6-0.5-1-1.2-1h-1.5v2H442.2z"/>
</g>
<g>
	<path class="st1" d="M19.7,171.7v-9.4h-2.1v-1.3h2.1v-4.6h1.4v4.6h5v1.3h-5v9.2c0,2,1.2,2.8,2.9,2.8c0.7,0,1.3-0.1,2.1-0.5v1.3
		c-0.7,0.3-1.4,0.5-2.3,0.5C21.5,175.6,19.7,174.4,19.7,171.7z"/>
	<path class="st1" d="M30.2,154.9h1.4v8.8c1-1.7,2.5-3,5.2-3c3.6,0,5.7,2.5,5.7,5.9v8.7H41v-8.5c0-2.9-1.7-4.9-4.5-4.9
		c-2.8,0-5,2.1-5,5.1v8.3h-1.4V154.9z"/>
	<path class="st1" d="M46.4,168.3L46.4,168.3c0-4.2,2.9-7.5,6.8-7.5c4,0,6.6,3.2,6.6,7.5c0,0.3,0,0.3,0,0.6H47.8
		c0.3,3.6,2.8,5.6,5.6,5.6c2.2,0,3.7-1,4.9-2.2l1,0.8c-1.5,1.6-3.2,2.7-5.9,2.7C49.6,175.7,46.4,172.7,46.4,168.3z M58.2,167.6
		c-0.2-2.9-1.8-5.5-5.1-5.5c-2.8,0-5,2.4-5.3,5.5H58.2z"/>
	<path class="st1" d="M71.2,168.3L71.2,168.3c0-4.7,3.5-7.5,6.9-7.5c2.9,0,4.7,1.6,5.9,3.4v-9.2h1.4v20.4H84v-3.2
		c-1.2,1.9-3.1,3.5-5.9,3.5C74.7,175.7,71.2,172.9,71.2,168.3z M84.1,168.3L84.1,168.3c0-3.7-2.9-6.2-5.8-6.2
		c-3.1,0-5.6,2.3-5.6,6.1v0.1c0,3.8,2.6,6.2,5.6,6.2C81.2,174.4,84.1,171.9,84.1,168.3z"/>
	<path class="st1" d="M89.4,171.2L89.4,171.2c0-3,2.5-4.7,6.2-4.7c2,0,3.4,0.3,4.7,0.6v-0.6c0-2.9-1.8-4.4-4.7-4.4
		c-1.7,0-3.2,0.5-4.5,1.1l-0.5-1.2c1.6-0.7,3.1-1.2,5.1-1.2c1.9,0,3.5,0.5,4.5,1.6c1,1,1.5,2.3,1.5,4v8.9h-1.3V173
		c-1,1.4-2.7,2.7-5.5,2.7C92.3,175.7,89.4,174.2,89.4,171.2z M100.4,170v-1.6c-1.2-0.3-2.8-0.6-4.8-0.6c-3,0-4.7,1.3-4.7,3.3v0.1
		c0,2.1,2,3.3,4.1,3.3C97.9,174.4,100.4,172.6,100.4,170z"/>
	<path class="st1" d="M107.3,171.7v-9.4h-2.1v-1.3h2.1v-4.6h1.4v4.6h5v1.3h-5v9.2c0,2,1.2,2.8,2.9,2.8c0.7,0,1.3-0.1,2.1-0.5v1.3
		c-0.7,0.3-1.4,0.5-2.3,0.5C109.1,175.6,107.3,174.4,107.3,171.7z"/>
	<path class="st1" d="M116.5,171.2L116.5,171.2c0-3,2.5-4.7,6.2-4.7c2,0,3.4,0.3,4.7,0.6v-0.6c0-2.9-1.8-4.4-4.7-4.4
		c-1.7,0-3.2,0.5-4.5,1.1l-0.5-1.2c1.6-0.7,3.1-1.2,5.1-1.2c1.9,0,3.5,0.5,4.5,1.6c1,1,1.5,2.3,1.5,4v8.9h-1.3V173
		c-1,1.4-2.7,2.7-5.5,2.7C119.4,175.7,116.5,174.2,116.5,171.2z M127.5,170v-1.6c-1.2-0.3-2.8-0.6-4.8-0.6c-3,0-4.7,1.3-4.7,3.3v0.1
		c0,2.1,2,3.3,4.1,3.3C125,174.4,127.5,172.6,127.5,170z"/>
	<path class="st1" d="M141.9,177.7l0.8-1.1c1.7,1.3,3.7,2,5.8,2c3.3,0,5.6-1.9,5.6-5.5V171c-1.2,1.8-3.1,3.3-6,3.3
		c-3.4,0-6.9-2.6-6.9-6.7v-0.1c0-4.1,3.4-6.8,6.9-6.8c2.9,0,4.8,1.5,6,3.2v-2.9h1.4v12.1c0,2.1-0.7,3.7-1.8,4.8
		c-1.2,1.2-3.1,1.9-5.2,1.9C146.1,179.9,143.9,179.2,141.9,177.7z M154.2,167.6L154.2,167.6c0-3.4-2.9-5.5-5.9-5.5
		c-3,0-5.5,2.1-5.5,5.4v0.1c0,3.2,2.6,5.5,5.5,5.5C151.2,173,154.2,170.8,154.2,167.6z"/>
	<path class="st1" d="M159.7,168.3L159.7,168.3c0-4.1,3.1-7.5,7.4-7.5c4.2,0,7.3,3.4,7.3,7.4v0.1c0,4-3.1,7.5-7.4,7.5
		C162.8,175.7,159.7,172.3,159.7,168.3z M172.9,168.3L172.9,168.3c0-3.5-2.6-6.2-5.9-6.2c-3.4,0-5.8,2.8-5.8,6.1v0.1
		c0,3.4,2.6,6.2,5.9,6.2C170.4,174.4,172.9,171.7,172.9,168.3z"/>
	<path class="st1" d="M176.3,161.1h1.6l5.4,12.7l5.5-12.7h1.5l-6.4,14.4h-1.2L176.3,161.1z"/>
	<path class="st1" d="M192.2,168.3L192.2,168.3c0-4.2,2.9-7.5,6.8-7.5c4,0,6.6,3.2,6.6,7.5c0,0.3,0,0.3,0,0.6h-11.8
		c0.3,3.6,2.8,5.6,5.6,5.6c2.2,0,3.7-1,4.9-2.2l1,0.8c-1.5,1.6-3.2,2.7-5.9,2.7C195.5,175.7,192.2,172.7,192.2,168.3z M204.1,167.6
		c-0.2-2.9-1.8-5.5-5.1-5.5c-2.8,0-5,2.4-5.3,5.5H204.1z"/>
	<path class="st1" d="M209.5,161.1h1.4v4.1c1.1-2.5,3.5-4.4,6.3-4.3v1.5h-0.1c-3.3,0-6.2,2.5-6.2,7.1v5.9h-1.4V161.1z"/>
	<path class="st1" d="M220.7,161.1h1.4v2.7c1-1.7,2.5-3,5.2-3c3.6,0,5.7,2.5,5.7,5.9v8.7h-1.4v-8.5c0-2.9-1.7-4.9-4.5-4.9
		c-2.8,0-5,2.1-5,5.1v8.3h-1.4V161.1z"/>
	<path class="st1" d="M236.7,171.2L236.7,171.2c0-3,2.5-4.7,6.2-4.7c2,0,3.4,0.3,4.7,0.6v-0.6c0-2.9-1.8-4.4-4.7-4.4
		c-1.7,0-3.2,0.5-4.5,1.1l-0.5-1.2c1.6-0.7,3.1-1.2,5.1-1.2c1.9,0,3.5,0.5,4.5,1.6c1,1,1.5,2.3,1.5,4v8.9h-1.3V173
		c-1,1.4-2.7,2.7-5.5,2.7C239.6,175.7,236.7,174.2,236.7,171.2z M247.7,170v-1.6c-1.2-0.3-2.8-0.6-4.8-0.6c-3,0-4.7,1.3-4.7,3.3v0.1
		c0,2.1,2,3.3,4.1,3.3C245.2,174.4,247.7,172.6,247.7,170z"/>
	<path class="st1" d="M254,161.1h1.4v2.7c1-1.7,2.5-3,5.2-3c3.6,0,5.7,2.5,5.7,5.9v8.7h-1.4v-8.5c0-2.9-1.7-4.9-4.5-4.9
		c-2.8,0-5,2.1-5,5.1v8.3H254V161.1z"/>
	<path class="st1" d="M270.2,168.3L270.2,168.3c0-4.1,3.2-7.5,7.3-7.5c2.7,0,4.4,1.2,5.7,2.6l-1,1c-1.2-1.3-2.6-2.4-4.8-2.4
		c-3.2,0-5.8,2.7-5.8,6.1v0.1c0,3.4,2.6,6.2,5.9,6.2c2,0,3.6-1,4.8-2.4l1,0.8c-1.5,1.7-3.2,2.8-5.8,2.8
		C273.3,175.7,270.2,172.3,270.2,168.3z"/>
	<path class="st1" d="M285.7,168.3L285.7,168.3c0-4.2,2.9-7.5,6.8-7.5c4,0,6.6,3.2,6.6,7.5c0,0.3,0,0.3,0,0.6h-11.8
		c0.3,3.6,2.8,5.6,5.6,5.6c2.2,0,3.7-1,4.9-2.2l1,0.8c-1.5,1.6-3.2,2.7-5.9,2.7C289,175.7,285.7,172.7,285.7,168.3z M297.6,167.6
		c-0.2-2.9-1.8-5.5-5.1-5.5c-2.8,0-5,2.4-5.3,5.5H297.6z"/>
	<path class="st1" d="M310.5,168.3L310.5,168.3c0-4.1,3.2-7.5,7.3-7.5c2.7,0,4.4,1.2,5.7,2.6l-1,1c-1.2-1.3-2.6-2.4-4.8-2.4
		c-3.2,0-5.8,2.7-5.8,6.1v0.1c0,3.4,2.6,6.2,5.9,6.2c2,0,3.6-1,4.8-2.4l1,0.8c-1.5,1.7-3.2,2.8-5.8,2.8
		C313.6,175.7,310.5,172.3,310.5,168.3z"/>
	<path class="st1" d="M326.1,168.3L326.1,168.3c0-4.1,3.1-7.5,7.4-7.5c4.2,0,7.3,3.4,7.3,7.4v0.1c0,4-3.1,7.5-7.4,7.5
		C329.1,175.7,326.1,172.3,326.1,168.3z M339.2,168.3L339.2,168.3c0-3.5-2.6-6.2-5.9-6.2c-3.4,0-5.8,2.8-5.8,6.1v0.1
		c0,3.4,2.6,6.2,5.9,6.2C336.8,174.4,339.2,171.7,339.2,168.3z"/>
	<path class="st1" d="M345,161.1h1.4v2.5c0.9-1.5,2.2-2.9,4.8-2.9c2.5,0,4,1.4,4.8,3.1c0.9-1.6,2.5-3.1,5.2-3.1c3.4,0,5.5,2.4,5.5,6
		v8.7h-1.4v-8.5c0-3.1-1.6-4.9-4.2-4.9c-2.4,0-4.5,1.8-4.5,5v8.3h-1.4v-8.6c0-3-1.6-4.8-4.2-4.8s-4.6,2.2-4.6,5.1v8.2H345V161.1z"/>
	<path class="st1" d="M371.5,161.1h1.4v3.2c1.2-1.9,3.1-3.5,5.9-3.5c3.4,0,6.9,2.8,6.9,7.4v0.1c0,4.6-3.5,7.5-6.9,7.5
		c-2.9,0-4.7-1.6-5.9-3.4v7.6h-1.4V161.1z M384.2,168.3L384.2,168.3c0-3.8-2.6-6.2-5.6-6.2c-3,0-5.8,2.5-5.8,6.1v0.1
		c0,3.7,2.9,6.1,5.8,6.1C381.7,174.4,384.2,172.1,384.2,168.3z"/>
	<path class="st1" d="M388.8,171.2L388.8,171.2c0-3,2.5-4.7,6.2-4.7c2,0,3.4,0.3,4.7,0.6v-0.6c0-2.9-1.8-4.4-4.7-4.4
		c-1.7,0-3.2,0.5-4.5,1.1l-0.5-1.2c1.6-0.7,3.1-1.2,5.1-1.2c1.9,0,3.5,0.5,4.5,1.6c1,1,1.5,2.3,1.5,4v8.9h-1.3V173
		c-1,1.4-2.7,2.7-5.5,2.7C391.6,175.7,388.8,174.2,388.8,171.2z M399.8,170v-1.6c-1.2-0.3-2.8-0.6-4.8-0.6c-3,0-4.7,1.3-4.7,3.3v0.1
		c0,2.1,2,3.3,4.1,3.3C397.3,174.4,399.8,172.6,399.8,170z"/>
	<path class="st1" d="M406,161.1h1.4v2.7c1-1.7,2.5-3,5.2-3c3.6,0,5.7,2.5,5.7,5.9v8.7h-1.4v-8.5c0-2.9-1.7-4.9-4.5-4.9
		c-2.8,0-5,2.1-5,5.1v8.3H406V161.1z"/>
	<path class="st1" d="M433.9,161.1h1.5l-6.2,14.8c-1.3,3-2.7,4.1-4.8,4.1c-1.1,0-1.9-0.2-2.8-0.6l0.5-1.2c0.8,0.4,1.4,0.5,2.4,0.5
		c1.5,0,2.5-0.9,3.5-3.4l-6.9-14.2h1.6l5.9,12.8L433.9,161.1z"/>
</g>
</svg>
